<svg xmlns="http://www.w3.org/2000/svg" width="880" height="300" viewBox="0 0 880 300" role="img"><rect x="0.5" y="0.5" width="879" height="299" rx="10" fill="#f6f8fa" stroke="#d1d9e0"/><text x="44" y="34" fill="#1f2328" font-family="-apple-system,BlinkMacSystemFont,Segoe UI,Helvetica,Arial,sans-serif" font-size="16" font-weight="600" text-anchor="start">Self-reports that contradict the git commit record</text><text x="44" y="54" fill="#818b98" font-family="-apple-system,BlinkMacSystemFont,Segoe UI,Helvetica,Arial,sans-serif" font-size="11.5" font-weight="400" text-anchor="start">Each agent writes its own start/finish timestamps. Commit times are ground truth.</text><rect x="44" y="65" width="11" height="11" rx="3" fill="#c2405f"/><text x="62" y="74" fill="#59636e" font-family="-apple-system,BlinkMacSystemFont,Segoe UI,Helvetica,Arial,sans-serif" font-size="11.5" font-weight="400" text-anchor="start">arm A - scaffolded, fresh session per task</text><rect x="312" y="65" width="11" height="11" rx="3" fill="#1f6feb"/><text x="330" y="74" fill="#59636e" font-family="-apple-system,BlinkMacSystemFont,Segoe UI,Helvetica,Arial,sans-serif" font-size="11.5" font-weight="400" text-anchor="start">arm B - one session, no scaffold</text><text x="44" y="114" fill="#1f2328" font-family="ui-monospace,SFMono-Regular,Menlo,Consolas,monospace" font-size="13" font-weight="600" text-anchor="start">Round 2</text><rect x="260" y="106" width="450" height="15" rx="4" fill="#dde3ea"/><text x="722" y="117.5" fill="#1f2328" font-family="ui-monospace,SFMono-Regular,Menlo,Consolas,monospace" font-size="11.5" font-weight="400" text-anchor="start">0/60</text><text x="776" y="117.5" fill="#818b98" font-family="ui-monospace,SFMono-Regular,Menlo,Consolas,monospace" font-size="11" font-weight="400" text-anchor="start">0%</text><rect x="260" y="123" width="450" height="15" rx="4" fill="#dde3ea"/><path d="M260,123 H706.0 a4,4 0 0 1 4,4 V134 a4,4 0 0 1 -4,4 H260 Z" fill="#1f6feb"/><text x="722" y="134.5" fill="#1f2328" font-family="ui-monospace,SFMono-Regular,Menlo,Consolas,monospace" font-size="11.5" font-weight="400" text-anchor="start">60/60</text><text x="776" y="134.5" fill="#818b98" font-family="ui-monospace,SFMono-Regular,Menlo,Consolas,monospace" font-size="11" font-weight="400" text-anchor="start">100%</text><text x="44" y="172" fill="#1f2328" font-family="ui-monospace,SFMono-Regular,Menlo,Consolas,monospace" font-size="13" font-weight="600" text-anchor="start">Round 3</text><rect x="260" y="164" width="450" height="15" rx="4" fill="#dde3ea"/><path d="M260,164 H278.5 a4,4 0 0 1 4,4 V175 a4,4 0 0 1 -4,4 H260 Z" fill="#c2405f"/><text x="722" y="175.5" fill="#1f2328" font-family="ui-monospace,SFMono-Regular,Menlo,Consolas,monospace" font-size="11.5" font-weight="400" text-anchor="start">1/20</text><text x="776" y="175.5" fill="#818b98" font-family="ui-monospace,SFMono-Regular,Menlo,Consolas,monospace" font-size="11" font-weight="400" text-anchor="start">5%</text><rect x="260" y="181" width="450" height="15" rx="4" fill="#dde3ea"/><path d="M260,181 H706.0 a4,4 0 0 1 4,4 V192 a4,4 0 0 1 -4,4 H260 Z" fill="#1f6feb"/><text x="722" y="192.5" fill="#1f2328" font-family="ui-monospace,SFMono-Regular,Menlo,Consolas,monospace" font-size="11.5" font-weight="400" text-anchor="start">1/1</text><text x="776" y="192.5" fill="#818b98" font-family="ui-monospace,SFMono-Regular,Menlo,Consolas,monospace" font-size="11" font-weight="400" text-anchor="start">100%</text><text x="44" y="230" fill="#1f2328" font-family="ui-monospace,SFMono-Regular,Menlo,Consolas,monospace" font-size="13" font-weight="600" text-anchor="start">Round 4</text><rect x="260" y="222" width="450" height="15" rx="4" fill="#dde3ea"/><path d="M260,222 H283.0 a4,4 0 0 1 4,4 V233 a4,4 0 0 1 -4,4 H260 Z" fill="#c2405f"/><text x="722" y="233.5" fill="#1f2328" font-family="ui-monospace,SFMono-Regular,Menlo,Consolas,monospace" font-size="11.5" font-weight="400" text-anchor="start">3/50</text><text x="776" y="233.5" fill="#818b98" font-family="ui-monospace,SFMono-Regular,Menlo,Consolas,monospace" font-size="11" font-weight="400" text-anchor="start">6%</text><rect x="260" y="239" width="450" height="15" rx="4" fill="#dde3ea"/><text x="722" y="250.5" fill="#1f2328" font-family="ui-monospace,SFMono-Regular,Menlo,Consolas,monospace" font-size="11.5" font-weight="400" text-anchor="start">0/50</text><text x="776" y="250.5" fill="#818b98" font-family="ui-monospace,SFMono-Regular,Menlo,Consolas,monospace" font-size="11" font-weight="400" text-anchor="start">0%</text><line x1="44" y1="266" x2="836" y2="266" stroke="#d1d9e0"/><text x="44" y="284" fill="#59636e" font-family="-apple-system,BlinkMacSystemFont,Segoe UI,Helvetica,Arial,sans-serif" font-size="12" font-weight="400" text-anchor="start">Rounds 2-3 on Devin: the unscaffolded arm fabricated its progress reports every time. Round 4 on Opus 5: it did not.</text></svg>